{"title":"New Tricks S12E09  - Life Expectancy x264 RB58.mp4","uid":12511857,"size":672794707,"categoryP":"video","categoryS":"tv_shows","magnet":"?xt=urn:btih:9919415a9b24b05795577af90efa05ddb74d4dab&amp;dn=New+Tricks+S12E09++-+Life+Expectancy+x264+RB58.mp4&amp;tr=udp%3A%2F%2Ftracker.leechers-paradise.org%3A6969&amp;tr=udp%3A%2F%2Fzer0day.ch%3A1337&amp;tr=udp%3A%2F%2Fopen.demonii.com%3A1337&amp;tr=udp%3A%2F%2Ftracker.coppersurfer.tk%3A6969&amp;tr=udp%3A%2F%2Fexodus.desync.com%3A6969","seeders":0,"leechers":1,"uploader":"RedBaron58","files":1,"time":1443575918,"description":"New Tricks S12E09  - Life Expectancy  x264 mp4\r\n \nhttp://www.imdb.com/title/tt0362357/\r\n\r\nTrailer (sorry older series)\r\n\r\n\r\n\r\nPlease be patient My intial upload speed is limited.\r\nThank you for your kind comments and feedback on my other torrents, your feedback is welcome.\r\n\r\n\r\nAbout the Episode:\r\nA blood-stained bust is uncovered during construction work in a cemetery and the evidence points \r\nto the murder of an alternative-medicine practitioner seven years earlier. \r\nFurther clues lead to the controversial world of cryopreservation, the practice of keeping clinically \r\ndead patients frozen to extend their life cycle. \r\nSasha is determined they don't put a foot wrong, but with the sobering possibility that two perpetrators \r\nare still at large, the detectives are forced to go out on a limb\r\n \r\nStarring Larry Lamb, Denis Lawson and Nicholas Lyndhurst\r\n\r\n\r\nI hope you enjoy.\r\n\r\n\r\nTechnical:\r\n\r\nGeneral\r\nComplete name                            : H:New Tricks S12E09  - Life Expectancy x264 RB58.mp4\r\nFormat                                   : MPEG-4\r\nFormat profile                           : Base Media\r\nCodec ID                                 : isom\r\nFile size                                : 642 MiB\r\nDuration                                 : 58mn 59s\r\nOverall bit rate                         : 1 520 Kbps\r\nWriting application                      : Lavf54.63.104\r\n\r\nVideo\r\nID                                       : 1\r\nFormat                                   : AVC\r\nFormat/Info                              : Advanced Video Codec\r\nFormat profile                           :   \r\nFormat settings, CABAC                   : Yes\r\nFormat settings, ReFrames                : 4 frames\r\nCodec ID                                 : avc1\r\nCodec ID/Info                            : Advanced Video Coding\r\nDuration                                 : 58mn 59s\r\nBit rate                                 : 1 400 Kbps\r\nWidth                                    : 832 pixels\r\nHeight                                   : 468 pixels\r\nDisplay aspect ratio                     : 16:9\r\nFrame rate mode                          : Constant\r\nFrame rate                               : 25.000 fps\r\nColor space                              : YUV\r\nChroma subsampling                       : 4:2:0\r\nBit depth                                : 8 bits\r\nScan type                                : Progressive\r\nBits/(Pixel*Frame)                       : 0.144\r\nStream size                              : 591 MiB (92%)\r\nWriting library                          : x264 core 123 r2189 35cf912\r\nEncoding settings                        : cabac=1 / ref=3 / deblock=1:0:0\r\n\r\nAudio\r\nID                                       : 2\r\nFormat                                   : AAC\r\nFormat/Info                              : Advanced Audio Codec\r\nFormat profile                           : LC\r\nCodec ID                                 : 40\r\nDuration                                 : 58mn 59s\r\nBit rate mode                            : Constant\r\nBit rate                                 : 112 Kbps\r\nChannel(s)                               : 2 channels\r\nChannel positions                        : Front: L R\r\nSampling rate                            : 48.0 KHz\r\nCompression mode                         : Lossy\r\nStream size                              : 47.4 MiB (7%)","torrent":{"xt":"urn:btih:9919415a9b24b05795577af90efa05ddb74d4dab","amp;dn":"New+Tricks+S12E09++-+Life+Expectancy+x264+RB58.mp4","amp;tr":["udp%3A%2F%2Ftracker.leechers-paradise.org%3A6969","udp%3A%2F%2Fzer0day.ch%3A1337","udp%3A%2F%2Fopen.demonii.com%3A1337","udp%3A%2F%2Ftracker.coppersurfer.tk%3A6969","udp%3A%2F%2Fexodus.desync.com%3A6969"],"infoHash":"9919415a9b24b05795577af90efa05ddb74d4dab","infoHashBuffer":{"type":"Buffer","data":[153,25,65,90,155,36,176,87,149,87,122,249,14,250,5,221,183,77,77,171]},"announce":[],"urlList":[]}}